<?xml version="1.0" standalone="no"?>
<!DOCTYPE svg PUBLIC "-//W3C//DTD SVG 1.1//EN" "http://www.w3.org/Graphics/SVG/1.1/DTD/svg11.dtd">
<svg xmlns="http://www.w3.org/2000/svg">
<metadata>Copyright (C) 2024 by original authors @ fontello.com</metadata>
<defs>
<font id="kineticons" horiz-adv-x="1000" >
<font-face font-family="kineticons" font-weight="400" font-stretch="normal" units-per-em="1000" ascent="850" descent="-150" />
<missing-glyph horiz-adv-x="1000" />
<glyph glyph-name="copy" unicode="&#xe800;" d="M813 6h-469c-52 0-94 42-94 94v656c0 52 42 94 94 94h469c51 0 93-42 93-94v-656c0-52-42-93-93-93z m-469 782c-17 0-31-15-31-32v-656c0-17 14-31 31-31h469c17 0 31 14 31 31v656c0 17-14 32-31 32h-469z m344-938h-500c-52 0-94 42-94 94v687c0 17 14 32 31 32s31-15 31-32v-687c0-17 14-32 32-32h500c17 0 31-14 31-31s-14-31-31-31z" horiz-adv-x="1000" />

<glyph glyph-name="arrowfirst" unicode="&#xe801;" d="M969 381h-862l415 416c12 12 12 31 0 44s-32 12-44 0l-415-416v394c0 17-15 31-32 31s-31-14-31-31v-938c0-17 14-31 31-31s32 14 32 31v394l415-416c6-6 14-9 22-9s16 3 22 9c12 13 12 32 0 44l-415 416h862c17 0 31 14 31 31s-14 31-31 31z" horiz-adv-x="1000" />

<glyph glyph-name="arrowleft" unicode="&#xe802;" d="M9 328l469-469c12-12 32-12 44 0s12 32 0 44l-415 416h862c17 0 31 14 31 31s-14 31-31 31h-862l415 416c12 12 12 31 0 44-6 6-14 9-22 9s-16-3-22-9l-469-469c-12-12-12-32 0-44z" horiz-adv-x="1000" />

<glyph glyph-name="arrowright" unicode="&#xe803;" d="M991 372l-469 469c-12 12-32 12-44 0s-12-32 0-44l415-415h-862c-17 0-31-14-31-32s14-31 31-31h862l-415-415c-12-12-12-32 0-44 6-7 14-9 22-9s16 3 23 9l468 468c12 13 12 32 0 45z" horiz-adv-x="1000" />

<glyph glyph-name="arrowlast" unicode="&#xe804;" d="M31 319h862l-415-416c-12-12-12-31 0-44s32-12 44 0l416 416v-394c0-17 14-31 31-31s31 14 31 31v938c0 17-14 31-31 31s-31-14-31-31v-394l-416 416c-6 6-14 9-22 9s-16-3-22-9c-12-12-12-32 0-44l415-415h-862c-17 0-31-14-31-32s14-31 31-31z" horiz-adv-x="1000" />

<glyph glyph-name="chevronup" unicode="&#xe805;" d="M1000 84c0-8-3-16-9-22-12-12-32-12-44 0l-447 447-447-447c-12-12-31-12-44 0s-12 32 0 44l469 469c12 12 32 12 44 0l469-469c6-6 9-14 9-22z" horiz-adv-x="1000" />

<glyph glyph-name="chevrondown" unicode="&#xe806;" d="M0 553c0 8 3 16 9 22 12 13 32 13 44 0l447-446 446 446c12 13 32 13 44 0s13-32 0-44l-468-468c-13-13-32-13-44 0l-469 468c-6 6-9 14-9 22z" horiz-adv-x="1000" />

<glyph glyph-name="user" unicode="&#xe807;" d="M500-150c-278 0-437 74-437 203 0 152 128 282 134 288 12 12 31 12 44 0 12-12 12-32 0-44-2-1-116-118-116-244 0-85 147-140 375-140s375 55 375 140c0 127-115 243-116 244-12 12-12 32 0 44 12 12 32 12 44 0 5-5 134-136 134-288 0-129-159-203-438-203z m0 438c-155 0-281 126-281 281s126 281 281 281 281-126 281-281-126-281-281-281z m0 500c-121 0-219-99-219-219s98-219 219-219 219 98 219 219-98 219-219 219z" horiz-adv-x="1000" />

<glyph glyph-name="addressbook" unicode="&#xe808;" d="M813 850h-563c-69 0-125-56-125-125v-62h-31c-17 0-31-15-31-32s14-31 31-31h31v-125h-31c-17 0-31-14-31-31s14-31 31-31h31v-125h-31c-17 0-31-15-31-32s14-31 31-31h31v-125h-31c-17 0-31-14-31-31s14-31 31-31h31v-63c0-69 56-125 125-125h563c69 0 125 56 125 125v750c0 69-57 125-125 125h0z m62-875c0-34-28-63-62-63h-563c-34 0-62 29-62 63v63h31c17 0 31 14 31 31s-14 31-31 31h-31v125h31c17 0 31 14 31 31s-14 32-31 32h-31v125h31c17 0 31 14 31 31s-14 31-31 31h-31v125h31c17 0 31 14 31 31s-14 32-31 32h-31v62c0 34 28 63 62 63h563c34 0 62-29 62-63v-750h0z m-226 368c-13-11-15-31-4-44 0-1 43-54 43-111 0-35-61-57-156-57s-157 22-157 57c0 57 43 110 44 111 11 13 9 33-4 44-13 11-33 9-44-4-3-3-58-71-58-151 0-36 21-119 219-119s218 83 218 119c0 80-55 148-57 151-11 13-31 15-45 4h1z m-117-24c86 0 156 70 156 156s-70 156-156 156-157-70-157-156 70-156 157-156z m0 250c51 0 93-42 93-94s-42-94-93-94-94 42-94 94 42 94 94 94z" horiz-adv-x="1000" />

<glyph glyph-name="guidebook" unicode="&#xe809;" d="M500 295c22 0 39-17 39-39s-17-39-39-39-39 18-39 39 17 39 39 39z m-85 327c27 34 48 41 83 41 40 0 57-8 70-31 23-40 6-66-39-116l-7-8c-54-61-55-106-55-111 0-17 13-30 30-31h1c17 0 30 13 31 30 0 0 3 28 40 70l7 8c39 45 94 106 47 189-32 55-81 62-125 62s-88-7-132-64c-10-14-8-33 6-44s33-8 44 6v-1z m464-709c-39 5-68 39-68 78s29 72 68 77c16 3 27 16 27 32h0v656c0 52-42 94-93 94h-579c-77 0-140-63-140-141v-726c4-75 68-133 146-133h635c3 0 4 0 5 1 13 2 24 12 26 26 2 17-10 33-27 36h0z m-723 796c0 44 35 79 78 79h579c17 0 31-15 31-32v-625h-610c-27 0-55-8-78-23v601z m0-723v4h0v1c0 20 8 39 22 53 15 16 35 25 56 25h539c-16-23-25-50-25-78s9-56 25-79h-532c-45 0-83 34-84 74h0z" horiz-adv-x="1000" />

<glyph glyph-name="bank" unicode="&#xe80a;" d="M969 569h-938c-14 0-27 10-30 24-4 15 4 29 17 35l469 219c8 4 18 4 26 0l469-219c13-6 21-20 17-35-3-14-16-24-30-24z m-797 62h656l-328 153-328-153z m797-781h-938c-17 0-31 14-31 31s14 31 31 31h938c17 0 31-14 31-31s-14-31-31-31z m-750 156c-17 0-31 14-31 32v406c0 17 14 31 31 31s31-14 31-31v-406c0-18-14-32-31-32z m281 0c-17 0-31 14-31 32v406c0 17 14 31 31 31s31-14 31-31v-406c0-18-14-32-31-32z m281 0c-17 0-31 14-31 32v406c0 17 14 31 31 31s32-14 32-31v-406c0-18-15-32-32-32z" horiz-adv-x="1000" />

<glyph glyph-name="notifications" unicode="&#xe80b;" d="M499-150c52 0 94 42 94 94h-187c0-52 42-94 93-94z m345 219h-31v406c0 151-108 277-250 306v7c0 34-29 62-63 62s-62-28-62-62v-7c-143-29-250-155-250-306v-406h-32c-17 0-31-14-31-31s14-32 31-32h688c17 0 31 14 31 32s-14 31-31 31z m-594 406c0 138 112 250 250 250s250-112 250-250v-406h-500v406z" horiz-adv-x="1000" />

<glyph glyph-name="alertokay" unicode="&#xe80c;" d="M500 850c-276 0-500-224-500-500s224-500 500-500 500 224 500 500-224 500-500 500z m248-405l-291-291c-9-9-19-12-30-12s-21 4-29 12l-146 146c-17 16-17 42 0 58s42 17 58 0l117-116 262 262c16 16 42 16 59 0s16-42 0-59z" horiz-adv-x="1000" />

<glyph glyph-name="info" unicode="&#xe80d;" d="M500 850c-276 0-500-224-500-500s224-500 500-500 500 224 500 500-224 500-500 500z m0-938c-241 0-437 197-437 438s196 438 437 438 438-197 438-438-197-438-438-438z m0 501c-17 0-31-15-31-32v-250c0-17 14-31 31-31s31 14 31 31v250c0 17-14 32-31 32z m0 148c22 0 39-18 39-39s-17-39-39-39-39 17-39 39 17 39 39 39z" horiz-adv-x="1000" />

<glyph glyph-name="alertwarning" unicode="&#xe80e;" d="M995-25l-459 793c-15 26-57 26-72 0l-459-793c-7-13-7-29 0-42 8-13 22-21 37-21h916c15 0 29 8 37 21 7 13 7 29 0 42z m-537 459c0 23 19 42 42 42s42-19 42-42v-208c0-23-19-42-42-42s-42 19-42 42v208z m42-380c-26 0-47 21-47 46s21 47 47 47 47-21 47-47-21-46-47-46z" horiz-adv-x="1000" />

<glyph glyph-name="add" unicode="&#xe80f;" d="M969 381h-438v438c0 17-14 31-31 31s-31-14-31-31v-438h-438c-17 0-31-14-31-31s14-31 31-31h438v-438c0-17 14-31 31-31s31 14 31 31v438h438c17 0 31 14 31 31s-14 31-31 31z" horiz-adv-x="1000" />

<glyph glyph-name="chat" unicode="&#xe810;" d="M969-150c-8 0-16 3-22 9l-179 179h-518c-17 0-31 14-31 31s14 31 31 31h531c9 0 17-3 22-9l135-134v706c0 17 14 31 31 31s31-14 31-31v-782c0-12-7-24-19-29-4-1-8-2-12-2z m-938 94c-4 0-8 0-12 2-11 5-19 16-19 29v781c0 52 42 94 94 94h719c51 0 93-42 93-94v-531c0-52-42-94-93-94h-581l-179-178c-6-6-14-9-22-9z m63 844c-17 0-31-15-31-32v-706l134 134c6 6 13 9 22 9h594c17 0 31 15 31 32v531c0 17-14 32-31 32h-719z m344-438h-188c-17 0-31 14-31 31s14 32 31 32h188c17 0 31-15 31-32s-14-31-31-31z m218 125h-406c-17 0-31 14-31 31s14 32 31 32h406c17 0 32-15 32-32s-15-31-32-31z m0 125h-406c-17 0-31 14-31 31s14 32 31 32h406c17 0 32-15 32-32s-15-31-32-31z" horiz-adv-x="1000" />

<glyph glyph-name="email" unicode="&#xe811;" d="M906 756h-812c-52 0-94-42-94-93v-625c0-52 42-94 94-94h812c52 0 94 42 94 94v625c0 51-42 93-94 93z m0-62c2 0 3-1 5-1l-411-274-411 274c2 0 3 1 5 1h812z m0-688h-812c-17 0-31 14-31 32v597l420-280c5-3 11-5 17-5s12 2 17 5l421 280v-597c0-18-15-32-32-32z" horiz-adv-x="1000" />

<glyph glyph-name="more" unicode="&#xe813;" d="M500 850c34 0 63-28 63-62s-29-63-63-63-62 28-62 63 28 62 62 62z m0-875c34 0 63-28 63-63s-29-62-63-62-62 28-62 62 28 63 62 63z m0 438c34 0 63-29 63-63s-29-62-63-62-62 28-62 62 28 63 62 63z" horiz-adv-x="1000" />

<glyph glyph-name="feedback" unicode="&#xe814;" d="M250 350c-17 0-31-14-31-31s14-31 31-31h188c17 0 31 14 31 31s-14 31-31 31h-188z m0 188h406c17 0 32 14 32 31s-15 31-32 31h-406c-17 0-31-14-31-31s14-31 31-31z m322-241c6-6 13-9 22-9 1 0 104 12 104 12 6 1 13 4 18 9l266 267c24 24 24 62 0 87l-45 44c-9 9-19 15-31 17v1c0 52-42 94-93 94h-719c-52 0-94-42-94-94v-813c0-12 8-24 19-28 4-2 8-3 12-3 8 0 17 3 22 9l179 179h581c51 0 94 42 94 94v218c0 17-14 32-32 32s-31-15-31-32v-218c0-18-14-32-31-32h-594c-9 0-16-3-22-9l-134-134v737c0 17 14 31 31 31h719c17 0 31-14 31-31v-25l-226-225h-368c-17 0-32-14-32-32s15-31 32-31h324l-11-90c-2-9 2-19 9-26z m64 107l204 206 44-44-205-205-49-6 6 49z" horiz-adv-x="1000" />

<glyph glyph-name="savings" unicode="&#xe816;" d="M703 475c26 0 47-21 47-47s-21-47-47-47-47 21-47 47 21 47 47 47z m-172 94h-218c-18 0-32-14-32-31s14-32 32-32h218c17 0 32 14 32 32s-15 31-32 31z m438-31h-80l-121 135c9 55 27 103 27 104 4 9 3 20-3 28-6 9-16 14-26 14-103 0-176-66-202-94h-298c-147 0-266-119-266-266 0-79 8-113 9-116l97-392c12-42 44-70 82-70h78c43 0 78 35 78 78v16h203v-16c0-43 35-78 78-78h78c37 0 70 28 81 69l69 219 125 42c13 4 22 16 22 30v265c0 17-14 32-32 32h0z m-31-275l-120-40c-9-3-17-10-20-20l-74-235c-3-11-11-24-21-24h-78c-9 0-16 7-16 15v47c0 17-14 32-31 32h-265c-18 0-32-15-32-32v-47c0-8-7-15-15-15h-78c-10 0-19 12-22 23l-97 390s-6 31-6 102c0 112 91 203 203 203h312c10 0 19 5 25 12 0 1 46 58 118 76-6-23-13-52-18-83-1-9 2-19 8-25l141-157c6-6 14-10 23-10h63s0-212 0-212z" horiz-adv-x="1000" />

<glyph glyph-name="techcontact" unicode="&#xe817;" d="M791 278c-12 12-32 12-44 0-12-12-13-32 0-44 1-1 97-100 97-206 0-72-123-99-176-107-18-2-29-18-27-35 3-16 16-27 31-27 2 0 3 0 5 0 200 30 230 119 230 169 0 132-111 245-116 250z m-478 291c17 0 31 14 31 31 0 103 84 188 188 188s187-85 187-188c0-17 14-31 31-31s32 14 32 31c0 138-113 250-250 250s-250-112-250-250c0-17 14-31 31-31z m-30-116c11-128 118-228 248-228s238 100 249 228c0 0 1 0 1 0 12 0 24 7 29 18 7 16 0 35-16 42-167 74-358 74-525 0-16-8-23-26-16-42 5-12 17-18 30-18z m436 21c0-103-85-186-188-186s-187 83-187 186c121 42 253 42 375 0z m-302 179c-17-3-29-19-26-36 3-17 19-29 36-26 76 12 134 12 209 0 2 0 3 0 5 0 15 0 28 11 31 26 3 17-9 33-26 36-82 13-147 13-228 0z m131-624l-49 12c-16 5-43 5-64-19l-48-55c-34 19-70 42-102 73-32 33-56 69-74 103l53 48c26 21 25 49 20 64l-11 48c-6 30-27 44-43 47-2 0-4 0-6 0h-79c-17 0-32-7-42-19-8-11-11-24-9-36 1-7 23-169 146-299 129-122 292-144 296-144 3-1 7-2 10-2 11 0 20 4 28 10 12 10 19 25 19 42v79c0 2 0 4 0 6-3 16-17 36-46 42z m-389 259h54l11-49-40-36c-13 35-21 66-25 85z m372-373c-17 4-48 11-85 25l37 41s0 0 0 0l48-12v-53z" horiz-adv-x="1000" />

<glyph glyph-name="techlocate" unicode="&#xe818;" d="M854 278c-12 12-32 13-44 0-12-12-12-32 0-44 1-1 97-99 97-206 0-71-123-116-313-116-69 0-130 6-180 18-17 4-34-7-37-24s6-34 23-37c55-13 120-19 195-19 238 0 375 65 375 178 0 132-110 245-115 250h-1z m-479 291c17 0 31 14 31 31 0 103 84 188 188 188s187-85 187-188c0-17 14-31 32-31s31 14 31 31c0 138-112 250-250 250s-250-112-250-250c0-17 14-31 31-31z m-30-116c11-128 118-228 249-228s237 100 249 228h1c12 0 23 7 28 18 7 16 0 35-15 42-167 74-359 74-526 0-16-8-23-26-16-42 6-12 18-18 30-18z m436 21c0-103-84-186-187-186s-187 83-188 186c122 42 254 42 375 0z m-302 179c-17-3-28-19-26-36 3-17 19-29 36-26 76 12 134 12 209 0 2 0 4 0 5 0 15 0 29 11 31 26 3 17-9 33-26 36-81 13-147 13-229 0z m-238-465c26 0 47-21 47-47s-21-47-47-47-47 21-47 47 21 47 47 47z m0 162c-116 0-210-94-210-210 0-161 185-280 193-285 5-3 11-5 17-5s11 1 17 5c7 5 192 124 192 285 0 116-94 210-209 210z m0-431c-42 31-147 119-147 221 0 81 66 148 147 148s147-67 147-148c0-102-105-190-147-221z" horiz-adv-x="1000" />

<glyph glyph-name="phone" unicode="&#xe819;" d="M934-150c-5 0-10 1-15 2-11 1-348 46-616 300-255 269-300 606-302 620-4 17 1 36 13 51 14 17 36 27 61 27l176-1c19-3 53-22 63-72l25-105c8-23 10-67-32-101l-135-121c42-84 99-173 176-254 80-76 169-133 252-174l123 136c32 40 76 39 99 31l106-26c49-10 68-44 71-62l1-6v-171c0-24-10-47-27-61-11-9-25-13-39-13z m-275 144c149-64 269-81 271-81l4 0s3 5 3 12v166c-1 2-7 9-23 12l-113 28c-3 1-18 4-31-13l-111-123z m-584 794c-7 0-12-3-13-5l1-3c0-2 16-121 81-271l122 110c18 15 15 29 14 33l-2 4-25 108c-4 16-10 22-13 24h-165z" horiz-adv-x="1000" />

<glyph glyph-name="circledcheveronleft" unicode="&#xe81c;" d="M500 850c-276 0-500-224-500-500s224-500 500-500 500 224 500 500-224 500-500 500z m92-637c16-16 16-43 0-59-8-8-19-12-29-12s-22 4-30 12l-167 167c-16 16-16 42 0 59l167 166c16 17 42 17 59 0s16-42 0-58l-137-138 137-137z" horiz-adv-x="1000" />

<glyph glyph-name="ticket" unicode="&#xe81e;" d="M322 216l-166-166c-12-12-12-32 0-44 7-6 14-9 22-9s16 3 23 9l165 166c12 12 12 31 0 44s-32 12-44 0z m584 197h-211l90 89 67 10c9 1 16 6 21 14l122 187c8 13 6 29-4 40l-88 88c-11 10-27 12-40 4l-187-122c-8-5-13-12-14-21l-10-67-141-141-53 53c26 82 4 172-58 235-72 71-182 89-272 42-9-5-15-13-17-23s2-20 9-27l126-125c6-6 9-14 9-22s-3-17-9-23c-13-12-32-12-44 0l-126 126c-8 7-18 10-27 9-10-2-19-8-23-17-47-91-29-200 43-272 62-62 152-84 235-58l9-9-267-266c-29-30-46-69-46-111s16-81 46-110 70-46 110-46 80 16 111 46l130 130c12 12 12 32 0 44s-32 13-44 0l-130-130c-37-37-96-37-133 0-17 18-27 41-27 66s10 49 27 67l268 267c5-4 11-7 17-7 8 0 16 4 23 10 12 12 12 31 0 44l-64 63c-9 9-22 12-34 7-64-27-138-12-187 37-42 42-58 102-46 158l91-91c36-37 95-37 132 0 37 36 37 96 0 132l-91 91c56 12 115-5 157-46 49-50 64-123 38-187-5-12-2-25 7-34l107-108c-40-10-70-46-70-90v-281c0-51 42-94 94-94h331l84-84c6-6 14-9 22-9 4 0 9 0 12 2 12 5 20 16 20 29v437c0 52-43 94-94 94z m-202 185c4 4 8 10 9 17l9 63 154 100 53-52-100-155-63-9c-7-1-13-4-18-9l-141-140h-14l-37 36 148 149z m234-641l-41 40c-6 6-14 9-22 9h-344c-17 0-31 14-31 31v281c0 18 14 31 31 31h375c17 0 32-14 32-31v-362z m-94 299h-250c-17 0-31-14-31-31s14-31 31-31h250c17 0 31 14 31 31s-14 31-31 31z m-94-93h-156c-17 0-31-15-31-32s14-31 31-31h156c17 0 31 14 31 31s-14 32-31 32z" horiz-adv-x="1000" />

<glyph glyph-name="product" unicode="&#xe81f;" d="M995 648l-101 157c-19 28-50 45-83 45h-622c-33 0-64-17-83-44 0 0 0-1 0-1l-101-157c-3-5-5-11-5-17v-678c0-57 45-103 101-103h799c55 0 100 46 100 103v678c0 6-1 12-5 17z m-837 123c7 10 19 17 31 17h622c12 0 24-7 31-17l69-108h-823l70 108z m217-171h250v-324l-111 55c-9 5-19 5-28 0l-111-55v324z m524-688h-798c-21 0-38 19-38 41v647h250v-375c0-11 5-21 14-27 9-5 21-6 31-1l142 71 142-71c4-2 9-3 14-3 6 0 12 1 17 4 9 6 14 16 14 27v375h250v-647c0-22-17-41-38-41z" horiz-adv-x="1000" />

<glyph glyph-name="order" unicode="&#xe820;" d="M991 232c-12 12-32 12-44 0l-259-260-103 103c-12 13-32 13-44 0s-12-32 0-44l125-125c6-6 14-9 22-9s16 3 22 9l282 282c12 12 12 31 0 44z m-695 14c8-6 20-7 29-3l128 57 128-57c4-2 8-3 13-3 6 0 12 2 17 5 8 6 14 16 14 27v312h219v-219c0-17 14-31 31-31s31 14 31 31v251c0 6-2 12-5 17l-91 130c-17 25-46 40-77 40h-560c-30 0-59-15-77-40l-90-130c-4-5-6-11-6-17v-594c0-52 42-94 94-94h328c17 0 31 14 31 31s-14 32-31 32h-328c-17 0-31 14-31 31v562h218v-312c0-11 6-20 15-26z m267 74l-97 43c-8 4-17 4-25 0l-97-43v264h219v-264z m-415 407c5 9 15 14 25 14h560c10 0 20-5 26-14l56-80h-724l57 80z" horiz-adv-x="1000" />

<glyph glyph-name="devices" unicode="&#xe821;" d="M906 756h-718c-52 0-94-42-94-93v-625h-47c-26 0-47-21-47-47s21-47 47-47h375c26 0 47 21 47 47s-21 47-47 47h-266v625c0 17 14 31 32 31h718c17 0 32 14 32 31s-15 31-32 31z m47-187h-312c-26 0-47-21-47-47v-531c0-26 21-47 47-47h312c26 0 47 21 47 47v531c0 26-21 47-47 47z m-15-531h-282v468h282v-468z" horiz-adv-x="1000" />

<glyph glyph-name="microphone" unicode="&#xe822;" d="M500 288c69 0 125 55 125 125v312c0 69-56 125-125 125s-125-56-125-125v-312c0-70 56-125 125-125z m-62 437c0 34 28 63 62 63s63-29 63-63v-312c0-35-29-63-63-63s-62 28-62 63v312z m421-345c1 17-12 32-29 33-17 0-32-13-33-30-8-159-138-283-297-283s-289 124-297 283c-1 17-15 30-33 30-17-1-30-16-29-33 8-182 150-326 327-341v-158c1-17 15-31 32-31h0c17 0 31 14 31 31v158c178 15 320 159 328 341z" horiz-adv-x="1000" />

<glyph glyph-name="support" unicode="&#xe823;" d="M931 250c-62 62-152 84-235 58l-53 53 141 141 67 10c9 1 17 6 22 14l122 187c8 13 6 29-4 40l-89 88c-10 10-27 12-39 4l-188-122c-7-5-12-12-14-21l-9-67-141-141-53 53c25 82 4 172-58 235-72 71-181 89-272 42-9-5-15-13-17-23s2-20 9-27l126-125c12-12 12-32 0-44-13-12-33-12-44 0l-126 125c-8 7-18 10-27 9-10-2-19-8-23-17-47-90-29-200 43-272 62-62 152-84 235-58l9-9-267-266c-29-30-46-69-46-111s16-81 46-110 70-46 110-46 80 16 110 46l267 266 8-9c-25-82-3-172 58-235 45-45 105-68 166-68 36 0 73 8 107 26 9 4 15 13 16 23 2 10-1 20-9 27l-125 125c-12 12-12 32 0 44s32 13 44 0l125-125c8-8 18-11 27-9 10 1 19 8 23 16 47 91 30 201-42 273z m-228 348c5 5 8 11 9 18l9 63 155 100 52-53-100-154-63-9c-6-1-12-5-17-9l-149-148-44 44 149 148z m-480-658c-37-37-96-37-133 0-18 18-27 41-27 66s9 49 27 67l266 266 133-133-266-266z m711 109l-91 91c-37 36-96 36-133 0-36-37-36-96 0-133l91-91c-56-12-115 5-157 47-49 49-64 122-37 187 4 11 2 25-7 34l-267 266c-5 6-14 9-22 9-4 0-8-1-12-2-64-27-137-12-186 37-42 42-59 101-47 157l91-91c35-35 97-35 132 0 18 18 28 42 28 67s-10 48-28 66l-91 91c56 12 115-5 158-47 49-49 63-122 37-187-5-11-2-25 7-34l266-266c9-9 22-12 34-7 65 27 138 12 187-37 42-42 59-102 47-158z m-603 176l-175-175c-12-12-12-32 0-44 6-6 14-9 22-9s16 3 22 9l175 175c13 12 13 32 0 44-12 13-32 13-44 0z" horiz-adv-x="1000" />

<glyph glyph-name="chevronleft" unicode="&#xe824;" d="M734 850c9 0 16-3 23-9 12-12 12-32 0-44l-447-447 447-446c12-12 12-32 0-44s-32-13-44 0l-469 468c-12 13-12 32 0 45l468 468c6 6 14 9 22 9z" horiz-adv-x="1000" />

<glyph glyph-name="chevronright" unicode="&#xe825;" d="M266-150c-8 0-16 3-23 9-12 12-12 32 0 44l447 447-447 447c-12 12-12 31 0 44s32 12 45 0l468-469c12-12 12-32 0-44l-468-469c-7-6-15-9-23-9z" horiz-adv-x="1000" />

<glyph glyph-name="wallet" unicode="&#xe827;" d="M938 594v131c0 52-43 94-94 94h-750c-52 0-94-42-94-94v-750c0-52 42-94 94-94h750c52 0 94 42 94 94v131c36 12 62 47 62 87v313c0 41-26 75-62 88h0z m-94-650h-750c-17 0-31 14-31 31v750c0 17 14 31 31 31h750c17 0 31-14 31-31v-125h-312c-52 0-94-42-94-94v-313c0-51 42-93 94-93h312v-125c0-18-14-32-31-32h0z m94 250c0-17-15-31-32-31h-344c-17 0-31 14-31 31v313c0 17 14 31 31 31h344c17 0 32-14 32-31v-313z m-235 242c48 0 86-38 86-86s-38-86-86-86-86 39-86 86 39 86 86 86z" horiz-adv-x="1000" />

<glyph glyph-name="kineticsecure" unicode="&#xe828;" d="M875-150h-750c-17 0-31 14-31 31s14 31 31 31h750c17 0 31-14 31-31s-14-31-31-31z m0 188h-750c-17 0-31 14-31 31s14 31 31 31h750c17 0 31-14 31-31s-14-31-31-31z m0 187h-750c-17 0-31 14-31 31s14 32 31 32h750c17 0 31-15 31-32s-14-31-31-31z m-62 156c-18 0-32 14-32 32v93c0 155-126 282-281 282s-281-127-281-282v-93c0-18-14-32-31-32s-32 14-32 32v93c0 190 154 344 344 344s344-154 344-344v-93c0-18-14-32-31-32z" horiz-adv-x="1000" />

<glyph glyph-name="kineticsecurehome" unicode="&#xe829;" d="M750 288c17 0 31 14 31 31v62c0 155-126 282-281 282s-281-127-281-282v-62c0-17 14-31 31-31s31 14 31 31v62c0 121 98 219 219 219s219-98 219-219v-62c0-17 14-31 31-31z m31-376h-562c-17 0-31-14-31-31s14-31 31-31h562c17 0 32 14 32 31s-15 31-32 31z m0 157h-562c-17 0-31-14-31-31s14-32 31-32h562c17 0 32 14 32 32s-15 31-32 31z m0 156h-562c-17 0-31-14-31-31s14-31 31-31h562c17 0 32 14 32 31s-15 31-32 31z m81 369l-81 59v166c0 17-14 31-31 31s-31-14-31-31v-121l-201 146c-10 8-25 8-36 0l-344-250c-14-10-17-30-7-44 10-14 30-17 44-7l325 237 325-237c6-4 12-5 19-5 9 0 19 4 25 12 10 14 7 34-7 44z" horiz-adv-x="1000" />

<glyph glyph-name="doublecheck" unicode="&#xe82a;" d="M531 100c-8 0-16 3-22 9l-219 219c-12 12-12 32 0 44s32 12 44 0l197-197 415 416c12 12 32 12 44 0s13-32 0-44l-437-438c-6-6-14-9-22-9z m-281 0c-8 0-16 3-22 9l-219 219c-12 12-12 32 0 44s32 12 44 0l197-197 40 41c12 12 32 12 44 0s12-32 0-44l-62-63c-7-6-14-9-23-9z m219 219c-8 0-16 3-22 9-13 12-13 32 0 44l218 219c13 12 32 12 44 0s13-32 0-44l-218-219c-7-6-14-9-23-9z" horiz-adv-x="1000" />

<glyph glyph-name="check" unicode="&#xe82b;" d="M344 6c-9 0-16 4-22 9l-313 313c-12 12-12 32 0 44s32 12 44 0l290-290 604 603c12 12 31 12 44 0s12-32 0-44l-625-626c-6-6-14-9-22-9z" horiz-adv-x="1000" />

<glyph glyph-name="search" unicode="&#xe82c;" d="M991-97l-357 357c53 63 85 143 85 231 0 198-161 359-360 359s-359-161-359-359 161-360 359-360c88 0 169 32 231 85l357-357c6-6 14-9 22-9s16 3 22 9c12 12 12 32 0 44z m-928 588c0 163 133 297 296 297s297-134 297-297-133-297-297-297-296 133-296 297z" horiz-adv-x="1000" />

<glyph glyph-name="delete" unicode="&#xe82d;" d="M922 803h-219c0 26-21 47-47 47h-312c-26 0-47-21-47-47h-219c-17 0-31-14-31-31s14-31 31-31h47v-797c0-52 42-94 94-94h562c52 0 94 42 94 94v797h47c17 0 31 14 31 31s-14 31-31 31z m-109-162v-697c0-17-15-32-32-32h-562c-17 0-31 15-31 32v797h625v-100z m-438-603c17 0 31 14 31 31v515c0 18-14 32-31 32s-31-14-31-32v-515c0-17 14-31 31-31z m250 0c17 0 31 14 31 31v515c0 18-14 32-31 32s-31-14-31-32v-515c0-17 14-31 31-31z" horiz-adv-x="1000" />

<glyph glyph-name="creditcard" unicode="&#xe82e;" d="M906 756h-812c-52 0-94-42-94-93v-625c0-52 42-94 94-94h812c52 0 94 42 94 94v625c0 51-42 93-94 93z m-812-62h812c17 0 31-14 31-31v-125h-874v125c0 17 14 31 31 31z m812-688h-812c-17 0-31 14-31 32v343h875v-343c0-18-15-32-32-32z" horiz-adv-x="1000" />

<glyph glyph-name="checksmall" unicode="&#xe830;" d="M358-7c-19 0-37 7-51 21l-286 285c-28 28-28 73 0 101s73 28 100 0l235-235 522 521c28 28 73 28 101 0s27-72 0-100l-572-572c-14-15-32-21-51-21h2z" horiz-adv-x="1000" />

<glyph glyph-name="settings" unicode="&#xe831;" d="M281 506c-17 0-31-14-31-31v-94h-219c-17 0-31-14-31-31s14-31 31-31h219v-94c0-17 14-31 31-31s32 14 32 31v250c0 17-15 31-32 31z m438 32c17 0 31 14 31 31v94h219c17 0 31 14 31 31s-14 31-31 31h-219v94c0 17-14 31-31 31s-31-14-31-31v-250c0-17 14-31 31-31z m-688 125h469c17 0 31 14 31 31s-14 31-31 31h-469c-17 0-31-14-31-31s14-31 31-31z m938-282h-469c-17 0-32-14-32-31s15-31 32-31h469c17 0 31 14 31 31s-14 31-31 31z m-688-343h-250c-17 0-31-15-31-32s14-31 31-31h250c17 0 32 14 32 31s-15 32-32 32z m688 0h-438v93c0 17-14 32-31 32s-31-15-31-32v-250c0-17 14-31 31-31s31 14 31 31v94h438c17 0 31 14 31 31s-14 32-31 32z" horiz-adv-x="1000" />

<glyph glyph-name="edit" unicode="&#xe832;" d="M969 707l-112 112c-42 42-110 42-151 0l-666-666c-5-5-8-11-9-18l-31-250c-1-10 2-19 9-26 6-6 14-9 22-9 2 0 3 0 4 0l250 31c7 1 13 4 18 9l666 666c20 20 31 47 31 75s-11 56-31 76z m-702-765l-199-25 25 200 554 555 175-175-555-555z" horiz-adv-x="1000" />

<glyph glyph-name="view" unicode="&#xe833;" d="M500 6c-362 0-497 329-498 332-3 8-3 16 0 24 1 3 136 332 498 332s497-329 498-332c3-8 3-16 0-24-1-3-136-332-498-332z m-435 344c26-55 149-281 435-281s409 226 435 281c-26 55-149 281-435 281s-409-226-435-281z m435-187c-103 0-187 84-187 187s84 188 187 188 188-85 188-188-85-187-188-187z m0 312c-69 0-125-56-125-125s56-125 125-125 125 56 125 125-56 125-125 125z" horiz-adv-x="1000" />

<glyph glyph-name="refresh" unicode="&#xe834;" d="M969 850c-17 0-31-14-31-31v-219l-38 50c-95 127-241 200-400 200-276 0-500-224-500-500s224-500 500-500c199 0 379 118 458 300 7 16 0 34-16 41-16 7-34 0-41-16-70-159-227-263-401-263-242 0-438 197-438 438s197 438 438 438c139 0 267-64 350-175l56-75h-250c-17 0-31-15-31-32s14-31 31-31h313c17 0 31 14 31 31v313c0 17-14 31-31 31z" horiz-adv-x="1000" />

<glyph glyph-name="filter" unicode="&#xe835;" d="M997 833c-5 10-16 17-28 17h-938c-12 0-23-7-28-17-5-11-4-24 4-34l399-506v-349c0-52 42-94 94-94s94 42 94 94v349l399 506c8 10 9 23 4 34z m-497-558l-404 513h808l-404-513z" horiz-adv-x="1000" />

<glyph glyph-name="alertunknown" unicode="&#xe836;" d="M500 850c-276 0-500-224-500-500s224-500 500-500 500 224 500 500-224 500-500 500z m0-792c-29 0-52 24-52 52s23 53 52 53 52-24 52-53-23-52-52-52z m90 294l-7-9c-40-44-43-73-43-73-2-22-20-39-42-39 0 0-1 0-2 0-22 1-40 18-40 41 0 9 3 60 65 127l8 9c50 54 68 80 44 119-13 21-27 31-75 31-38 0-61-6-90-43-15-17-41-20-59-6-18 14-21 40-7 59 52 65 106 73 156 73s109-8 146-71c58-97-9-170-54-219z" horiz-adv-x="1000" />

<glyph glyph-name="close" unicode="&#xe837;" d="M544 350l447 447c12 12 12 31 0 44s-32 12-44 0l-447-447-447 447c-12 12-32 12-44 0s-12-32 0-44l447-447-447-447c-12-12-12-31 0-44 6-6 14-9 22-9s16 3 22 9l447 447 447-447c6-6 14-9 22-9s16 3 22 9c12 13 12 32 0 44l-447 447z" horiz-adv-x="1000" />

<glyph glyph-name="circledcheveronright" unicode="&#xe838;" d="M500 850c-276 0-500-224-500-500s224-500 500-500 500 224 500 500-224 500-500 500z m134-530l-167-166c-8-9-19-12-29-12s-22 4-30 12c-16 16-16 42 0 59l137 137-137 137c-16 16-16 42 0 58s42 17 59 0l166-166c17-16 17-43 0-59z" horiz-adv-x="1000" />

<glyph glyph-name="circledcheveronup" unicode="&#xe839;" d="M500 850c-276 0-500-224-500-500s224-500 500-500 500 224 500 500-224 500-500 500z m196-592c-8-8-18-12-29-12s-22 4-30 12l-137 137-137-137c-16-16-43-16-59 0s-16 42 0 59l167 166c16 17 42 17 59 0l166-166c17-17 17-43 0-59z" horiz-adv-x="1000" />

<glyph glyph-name="circledcheverondown" unicode="&#xe83a;" d="M500 850c-276 0-500-224-500-500s224-500 500-500 500 224 500 500-224 500-500 500z m196-467l-166-167c-9-8-19-12-30-12s-21 4-30 12l-166 167c-16 16-16 42 0 59s42 16 59 0l137-137 137 137c16 16 42 16 58 0s17-43 0-59z" horiz-adv-x="1000" />

<glyph glyph-name="calendar" unicode="&#xe83d;" d="M500 318c26 0 47-20 47-46s-21-47-47-47-47 21-47 47 21 46 47 46z m0-187c26 0 47-21 47-47s-21-47-47-47-47 21-47 47 21 47 47 47z m-203 187c26 0 46-20 46-46s-20-47-46-47-47 21-47 47 21 46 47 46z m0-187c26 0 46-21 46-47s-20-47-46-47-47 21-47 47 21 47 47 47z m406 187c26 0 47-20 47-46s-21-47-47-47-47 21-47 47 21 46 47 46z m0-187c26 0 47-21 47-47s-21-47-47-47-47 21-47 47 21 47 47 47z m141 625h-94v63c0 17-14 31-31 31s-31-14-31-31v-63h-375v63c0 17-15 31-32 31s-31-14-31-31v-63h-94c-52 0-93-42-93-93v-719c0-52 42-94 93-94h688c52 0 94 42 94 94v719c0 51-43 93-94 93h0 0z m-688-62h687c18 0 32-14 32-31v-157h-750v157c0 17 14 31 31 31z m688-782h-688c-17 0-31 14-31 31v501h750v-501c0-17-14-31-31-31z" horiz-adv-x="1000" />

<glyph glyph-name="location" unicode="&#xe83e;" d="M500 538c-52 0-94-42-94-94s42-94 94-94 94 42 94 94-42 94-94 94z m0 312c-224 0-406-186-406-415 0-324 373-570 389-580 5-3 11-5 17-5s12 2 17 5c16 10 389 256 389 580 0 229-182 415-406 415z m0-931c-72 52-344 263-344 516 0 195 154 353 344 353s344-159 344-353c0-253-272-464-344-516z" horiz-adv-x="1000" />

<glyph glyph-name="alertcancel" unicode="&#xe845;" d="M500 850c-276 0-500-224-500-500s224-500 500-500 500 224 500 500-224 500-500 500z m217-658c16-16 16-42 0-59-8-8-19-12-29-12s-22 4-30 12l-158 158-158-158c-8-8-19-12-29-12s-22 4-30 12c-16 17-16 43 0 59l158 158-158 158c-16 16-16 42 0 59s42 16 59 0l158-158 158 158c16 16 42 16 58 0s17-43 0-59l-158-158 158-158z" horiz-adv-x="1000" />

<glyph glyph-name="news" unicode="&#xe85c;" d="M906 788h-812c-52 0-94-42-94-94v-688c0-52 42-94 94-94h813c51 0 93 42 93 94v688c0 51-42 94-93 94h-1z m32-782c0-17-15-31-32-31h-812c-17 0-31 14-31 31v688c0 17 14 31 31 31h813c17 0 31-14 31-31v-688h0z m-188 188h-500c-17 0-31-14-31-31s14-32 31-32h500c17 0 31 14 31 32s-14 31-31 31z m0 375h-187c-18 0-32-14-32-31s14-32 32-32h187c17 0 31 14 31 32s-14 31-31 31z m-500 0h125c17 0 31-14 31-31v-186c0-17-14-31-31-31h-125c-17 0-31 14-31 31v186c0 17 14 31 31 31z m500-188h-187c-18 0-32-14-32-31s14-31 32-31h187c17 0 31 14 31 31s-14 31-31 31z" horiz-adv-x="1000" />

<glyph glyph-name="blog" unicode="&#xe85d;" d="M156 100h688c51 0 94 42 94 94v437c0 52-43 94-94 94h-688c-51 0-93-42-93-94v-437c0-52 42-94 93-94z m-31 531c0 17 14 32 31 32h688c17 0 31-15 31-32v-437c0-17-14-31-31-31h-688c-17 0-31 14-31 31v437z m844-593h-938c-17 0-31-15-31-32s14-31 31-31h938c17 0 31 14 31 31s-14 32-31 32z m-438 500h188c17 0 31 14 31 31s-14 31-31 31h-188c-17 0-31-14-31-31s14-31 31-31z m0-157h188c17 0 31 14 31 32s-14 31-31 31h-188c-17 0-31-14-31-31s14-32 31-32z m-250-156h438c17 0 31 14 31 31s-14 32-31 32h-438c-17 0-31-15-31-32s14-31 31-31z m0 375h94c17 0 31-14 31-31v-156c0-18-14-32-31-32h-94c-17 0-31 14-31 32v156c0 17 14 31 31 31z" horiz-adv-x="1000" />

<glyph glyph-name="home" unicode="&#xe866;" d="M988 406l-176 140v210c0 17-14 32-31 32h-94c-17 0-31-15-31-32v-85l-137 110c-11 9-27 9-39 0l-468-375c-14-11-16-31-5-44 6-8 15-12 24-12 7 0 14 2 20 7l449 359 449-359c14-11 33-9 44 5 11 13 9 33-5 44z m-269 319h31v-129l-31 25v104z m-200-69c-11 9-27 9-39 0l-406-325c-13-11-15-31-5-44 11-14 31-16 44-5l44 34v-373c0-17 14-31 31-31h625c17 0 31 14 31 31v373l43-34c6-5 13-7 20-7 9 0 18 4 24 12 11 13 8 33-5 44l-406 325z m44-681h-125v188h125v-188z m218 0h-156v219c0 17-14 31-31 31h-188c-17 0-31-14-31-31v-219h-156v391l281 225 281-225v-391z" horiz-adv-x="1000" />

<glyph glyph-name="subtract" unicode="&#xe868;" d="M969 319h-938c-17 0-31 14-31 31s14 31 31 31h938c17 0 31-14 31-31s-14-31-31-31z" horiz-adv-x="1000" />

<glyph glyph-name="internet" unicode="&#xe869;" d="M500 850c-250 0-463-186-496-433-2-18 10-33 27-35 17-3 33 9 35 26 22 162 132 295 278 350 0 0 0-1 0-2 0-123 34-238 94-338-73-69-163-119-265-144-16 27-45 45-79 45-52 0-94-42-94-94s42-94 94-94c47 0 86 36 92 82 109 26 207 80 287 153 19-24 38-47 59-68 0-4-1-7-1-10 0-52 42-94 94-94 11 0 21 2 30 5 27-16 54-31 83-43-57-103-144-188-253-243-111 4-215 49-294 128-13 12-32 12-44 0s-13-32 0-44c94-95 220-147 353-147 276 0 500 225 500 500s-224 500-500 500z m-93-73c30 7 61 11 93 11 41 0 81-7 119-17-15-116-64-221-136-306-48 87-77 186-77 291 0 7 1 14 1 21z m299-536c8 14 13 29 13 47 0 51-42 93-94 93-24 0-46-9-63-24-15 17-30 35-44 54 83 93 140 209 160 338 153-68 259-221 259-399 0-63-14-124-38-178-26 4-51 10-76 17 30 70 47 144 51 222 1 17-13 32-30 32-17 1-32-12-33-29-3-71-20-140-47-203-20 8-40 19-59 30z m-77-309c69 55 126 124 168 201 23-7 47-13 71-18-55-86-139-152-239-183z" horiz-adv-x="1000" />

<glyph glyph-name="signout" unicode="&#xe86a;" d="M469-88h-375c-17 0-31 15-31 32v812c0 17 14 32 31 32h375c17 0 31 14 31 31s-14 31-31 31h-375c-52 0-94-42-94-94v-812c0-52 42-94 94-94h375c17 0 31 14 31 31s-14 31-31 31z m522 460l-188 188c-12 12-31 12-44 0s-12-32 0-44l134-134h-518c-17 0-31-14-31-32s14-31 31-31h518l-134-134c-12-12-12-32 0-44 7-6 14-9 23-9s16 3 22 9l187 187c12 13 12 32 0 45z" horiz-adv-x="1000" />

<glyph glyph-name="calendarno" unicode="&#xe86b;" d="M844 756h-94v63c0 17-14 31-31 31s-31-14-31-31v-63h-375v63c0 17-15 31-32 31s-31-14-31-31v-63h-94c-52 0-93-42-93-93v-719c0-52 42-94 93-94h687c52 0 94 42 94 94v719c0 51-42 93-94 93z m-688-62h687c18 0 32-14 32-31v-157h-750v157c0 17 14 31 31 31z m688-782h-688c-17 0-31 15-31 32v500h750v-500c0-17-14-32-31-32z m-197 429c-12 12-32 12-44 0l-103-103-102 103c-13 12-32 12-45 0s-12-32 0-44l103-103-103-103c-12-12-12-32 0-44 7-6 15-9 23-9s16 3 22 9l103 103 102-103c7-6 15-9 23-9s16 3 22 9c12 12 12 32 0 44l-103 103 103 103c12 12 12 32 0 44z" horiz-adv-x="1000" />

<glyph glyph-name="sms" unicode="&#xe870;" d="M906 788h-812c-52 0-94-43-94-94v-750c0-13 8-24 19-29 4-2 8-3 12-3 8 0 17 4 22 10l116 116h738c51 0 93 42 93 93v563c0 51-42 94-93 94z m32-657c0-17-15-31-32-31h-750c-8 0-16-3-22-9l-71-72v675c0 17 14 31 31 31h812c17 0 32-14 32-31v-563z m-391 282c0-26-21-47-47-47s-47 21-47 47 21 46 47 46 47-21 47-46z m-234 0c0-26-21-47-47-47s-47 21-47 47 21 46 47 46 47-21 47-46z m468 0c0-26-21-47-47-47s-46 21-46 47 20 46 46 46 47-21 47-46z" horiz-adv-x="1000" />

<glyph glyph-name="brandfacebook" unicode="&#xe871;" d="M500 850c-276 0-500-225-500-502 0-235 162-433 379-487v334h-103v153h103v66c0 171 77 250 244 250 32 0 86-6 109-12v-139c-12 1-32 1-58 1-82 0-114-31-114-112v-54h164l-28-154h-136v-344c248 30 440 241 440 498 0 277-224 502-500 502z" horiz-adv-x="1000" />

<glyph glyph-name="brandmessenger" unicode="&#xe872;" d="M500 850c-282 0-500-206-500-485 0-146 60-272 157-359 8-7 13-17 13-28l3-89c0-7 2-13 5-19 4-6 8-11 14-14 6-4 12-6 18-6 7-1 13 1 19 3l100 44c8 4 18 5 26 2 46-12 94-19 145-19 282 0 500 206 500 485s-218 485-500 485z m263-379l-126-198c-4-8-11-14-18-19-7-5-16-9-24-10-9-2-18-1-27 0-8 2-16 6-23 11l-100 75c-4 3-10 5-15 5s-11-2-16-5l-134-102c-18-14-41 8-29 27l125 198c5 8 11 14 18 19 7 5 16 8 24 10s18 1 27-1c8-2 16-6 23-11l100-74c5-4 10-5 15-5s11 2 16 5l134 102c18 14 42-8 30-27z" horiz-adv-x="1000" />

<glyph glyph-name="brandtwitter" unicode="&#xe873;" d="M592 427l361 423h-85l-314-368-250 368h-288l378-556-378-444h85l331 388 264-388h288l-392 577h0z m-117-138l-38 55-305 441h131l246-356 39-55 320-462h-132l-261 377h0z" horiz-adv-x="1000" />

<glyph glyph-name="brandlinkedin" unicode="&#xe874;" d="M926 850h-852c-41 0-74-33-74-74v-852c0-41 33-74 74-74h852c41 0 74 33 74 74v852c0 41-33 74-74 74z m-628-852h-150v478h150v-478z m-75 544c-48 0-87 36-87 86s39 86 87 86 86-36 86-86-38-86-86-86z m629-544h-150v261c0 77-33 100-75 100-45 0-89-33-89-102v-259h-150v477h145v-66h2c14 29 65 80 143 80 83 0 174-50 174-196v-295z" horiz-adv-x="1000" />

<glyph glyph-name="menu" unicode="&#xe878;" d="M969 381h-938c-17 0-31-14-31-31s14-31 31-31h938c17 0 31 14 31 31s-14 31-31 31z m-938 250h938c17 0 31 14 31 32s-14 31-31 31h-938c-17 0-31-14-31-31s14-32 31-32z m938-562h-938c-17 0-31-14-31-31s14-32 31-32h938c17 0 31 14 31 32s-14 31-31 31z" horiz-adv-x="1000" />

<glyph glyph-name="wifi" unicode="&#xe879;" d="M500 131c34 0 63-28 63-62s-29-63-63-63-62 28-62 63 28 62 62 62z m0 282c-108 0-212-40-292-113-13-12-14-31-3-44s32-14 44-2c69 62 159 96 251 96s182-34 251-97c6-5 13-8 21-8 8 0 16 3 23 10 11 13 10 33-2 44-81 74-185 114-293 114z m490 88c-133 124-307 193-490 193s-357-69-490-193c-13-12-13-32-2-44s32-14 45-2c121 114 280 177 447 177s326-63 448-177c5-6 13-8 21-8 8 0 16 3 23 10 11 12 11 32-2 44z" horiz-adv-x="1000" />

<glyph glyph-name="link" unicode="&#xe87d;" d="M656 319h-312c-17 0-31 14-31 31s14 31 31 31h312c17 0 32-14 32-31s-15-31-32-31z m-250-219h-156c-138 0-250 112-250 250s112 250 250 250h156c17 0 32-14 32-31s-15-31-32-31h-156c-103 0-187-85-187-188s84-187 187-187h156c17 0 32-15 32-32s-15-31-32-31z m344 0h-156c-17 0-31 14-31 31s14 32 31 32h156c103 0 188 84 188 187s-85 188-188 188h-156c-17 0-31 14-31 31s14 31 31 31h156c138 0 250-112 250-250s-112-250-250-250z" horiz-adv-x="1000" />

<glyph glyph-name="shareandroid" unicode="&#xe881;" d="M797 131c-40 0-75-16-101-43l-360 218c5 14 8 28 8 44s-3 30-8 44l360 218c26-27 61-43 101-43 77 0 141 63 141 140s-64 141-141 141-141-63-141-141c0-15 3-30 8-44l-360-217c-26 26-61 43-101 43-77 0-140-63-140-141s63-141 140-141c40 0 75 17 101 44l360-218c-5-14-8-29-8-44 0-78 63-141 141-141s141 63 141 141-64 140-141 140z m0 657c43 0 78-35 78-79s-35-78-78-78-78 35-78 78 35 79 78 79z m-594-516c-43 0-78 35-78 78s35 78 78 78 78-35 78-78-35-78-78-78z m594-360c-43 0-78 35-78 79s35 78 78 78 78-35 78-78-35-79-78-79z" horiz-adv-x="1000" />

<glyph glyph-name="shareios" unicode="&#xe882;" d="M781 538h-93c-18 0-32-15-32-32s14-31 32-31h93c17 0 32-14 32-31v-500c0-17-15-32-32-32h-562c-17 0-31 15-31 32v500c0 17 14 31 31 31h94c17 0 31 14 31 31s-14 32-31 32h-94c-52 0-94-43-94-94v-500c0-52 42-94 94-94h562c52 0 94 42 94 94v500c0 51-42 94-94 94z m-406 125c8 0 16 3 22 9l72 71v-549c0-17 14-31 31-31s31 14 31 31v550l72-71c12-13 32-13 44 0 12 12 12 31 0 44l-125 124c-12 12-32 12-44 0l-125-125c-13-13-13-32 0-44 6-7 14-9 22-9z" horiz-adv-x="1000" />

<glyph glyph-name="business" unicode="&#xe883;" d="M906 631h-218v63c0 51-43 94-94 94h-188c-51 0-93-43-93-94v-63h-219c-52 0-94-42-94-93v-532c0-52 42-94 94-94h813c51 0 93 42 93 94v532c0 51-42 93-93 93z m-531 63c0 17 14 31 31 31h188c17 0 31-14 31-31v-63h-250v63z m-281-125h813c17 0 31-14 31-31v-266h-328v47c0 17-14 31-32 31h-156c-17 0-31-14-31-31v-47h-328v266c0 17 14 31 31 31z m453-281v-94h-94v94h94z m359-313h-812c-17 0-31 14-31 31v203h328v-46c0-18 14-32 31-32h156c17 0 31 14 31 32v46h329v-203c0-17-15-31-32-31z" horiz-adv-x="1000" />

<glyph glyph-name="hide" unicode="&#xe886;" d="M998 362c-1 3-136 332-498 332-60 0-117-9-172-28-16-5-25-23-19-39 5-17 23-26 39-20 48 16 99 24 152 24 286 0 409-226 435-281-14-29-56-107-133-173-14-11-15-31-4-44 6-7 15-11 24-11 7 0 14 3 20 8 109 93 154 203 156 208 3 8 3 16 0 23z m-350-71c2 0 4-1 5-1 15 0 28 11 31 26 2 12 4 23 4 34 0 103-85 188-188 188-11 0-22-2-34-4-17-3-28-19-25-36 3-17 19-29 37-25 8 1 15 2 22 2 69 0 125-56 125-125 0-7 0-14-2-23-3-17 8-33 25-36z m-563 456c-12 12-32 12-44 0s-13-32 0-44l126-126c-115-94-163-210-165-215-3-8-3-16 0-24 1-3 136-332 498-332 70 0 137 13 199 38l185-185c7-6 14-9 23-9s16 3 22 9c12 12 12 32 0 44l-844 844z m415-678c-286 0-409 225-435 281 15 30 61 114 146 182l115-114c-9-22-13-45-13-68 0-103 84-187 187-187 23 0 46 4 68 13l82-83c-47-16-97-24-150-24z" horiz-adv-x="1000" />
</font>
</defs>
</svg>
